<svg xmlns="http://www.w3.org/2000/svg" data-name="Layer 1" viewBox="0 0 1194.72 429.59">
  <path d="M22.06.21C30.98.05 38.4 2.32 45.74 5.09c10.85 4.1 21.59 8.64 32.7 11.86 11.05 3.21 22.49 2.57 33.93.97 6.89-.96 13.97-.71 20.96-.71 13.25 0 26.5 0 39.74.37 10.33.28 20.65 1.01 30.97 1.7 15.91 1.06 31.82 2.26 47.72 3.38 8.34.59 16.69 1.09 25.03 1.69 6.69.48 13.42.76 20.06 1.67 9.33 1.27 18.6 2.94 27.87 4.63 9.23 1.68 18.44 3.47 27.61 5.46 11.34 2.47 22.61 5.25 33.93 7.78 6.12 1.37 12.32 2.41 18.43 3.79 6.38 1.44 12.69 3.2 19.07 4.66 5.9 1.35 11.85 2.46 17.76 3.75 9.51 2.07 19 4.25 28.53 6.29 6.53 1.4 13.11 2.58 19.64 3.96 6.17 1.3 12.31 2.75 18.47 4.1 4.08.89 8.18 1.71 12.26 2.59 6.15 1.33 12.28 2.71 18.43 4.05 4.2.92 8.42 1.78 12.62 2.71 6.15 1.36 12.3 2.78 18.45 4.15 3.95.88 7.91 1.68 11.87 2.54 6.27 1.38 12.54 2.79 18.81 4.17 4.1.9 8.21 1.74 12.3 2.64 6.15 1.36 12.28 2.77 18.43 4.12 4.09.9 8.2 1.71 12.29 2.62 6.28 1.39 12.55 2.82 18.83 4.23 3.72.83 7.44 1.65 11.17 2.44 6.52 1.38 13.05 2.67 19.55 4.13 6 1.34 12.01 2.68 17.93 4.34 6.94 1.94 13.89 3.95 20.64 6.45 7.4 2.74 10.43 9.2 10.36 16.38-.08 7.41 2.71 7.58 9.02 9.11 7.68 1.86 15.46 3.27 23.2 4.87 6.02 1.24 12.08 2.36 18.08 3.7 6.52 1.46 12.97 3.19 19.49 4.65 6.02 1.34 12.09 2.42 18.12 3.72 6.97 1.51 13.91 3.17 20.89 4.69 6.3 1.37 12.64 2.56 18.94 3.92 9.04 1.96 18.06 4.02 27.09 6.01 5.89 1.3 11.8 2.53 17.69 3.86 6.97 1.58 13.92 3.32 20.9 4.84 6.16 1.34 12.38 2.39 18.54 3.74 11.93 2.62 23.85 5.32 35.76 8.08 7.18 1.66 14.38 3.26 21.45 5.32 8.58 2.5 17.11 5.21 25.49 8.31 8.31 3.08 16.64 6.28 24.54 10.28 10.87 5.5 21.46 11.58 31.96 17.79 11.8 6.97 23.33 14.42 35.05 21.53 6.02 3.65 8.61 3.19 14.05-2.3 4.09-4.13 7.86-8.59 12.02-12.65 4.87-4.73 10.96-7.47 17.67-6.95 7.84.61 13.98 4.96 18.1 11.69 5.61 9.16 5.85 18.76 1.96 28.67-5.42 13.78-15.65 24.02-25.29 34.69-3.25 3.6-7.11 6.65-10.32 10.28-9.66 10.89-22.01 18.2-34.35 25.32-12.74 7.35-26.05 13.73-39.1 20.54-11.41 5.95-22.71 12.14-34.28 17.76-8.02 3.89-16.28 7.44-24.72 10.29-5.53 1.87-11.04-.36-15.56-3.86-3.47-2.68-6.66-5.79-9.61-9.05-5-5.52-10.32-8.14-18.08-5.49-6 2.05-12.55 2.47-18.81 3.83-5.09 1.1-10.14 2.41-15.16 3.8-4.85 1.34-9.62 2.99-14.47 4.35-13.73 3.86-26.93 9.02-39.22 16.28-16.92 10.01-35.08 14.89-54.64 12.46-12.21-1.51-24.31-4.22-35.63-9.39-12.39-5.65-24.77-11.33-36.98-17.35-8.94-4.41-17.62-9.35-26.36-14.16-4.99-2.75-10.29-3.35-15.86-3.01-3.69.23-6.49 1.97-8.06 5.05-2.03 4-3.65 8.23-5.15 12.46-4.91 13.93-13.32 24.34-27.39 30.24-10.42 4.37-21.13 4.29-31.56 2.7-10.36-1.59-20.4-5.48-30.48-8.68-7.46-2.37-14.77-5.2-22.12-7.91-6.98-2.57-13.91-5.27-20.88-7.89-6.19-2.33-12.41-4.59-18.59-6.96-8.75-3.36-17.55-6.61-26.2-10.23-10.46-4.38-20.96-8.72-31.1-13.76-15.94-7.92-31.61-16.39-47.38-24.67-23.35-12.26-45.02-27.02-65.35-43.8-17.98-14.83-36.12-29.47-53.88-44.56-5.21-4.42-10.27-9.57-13.62-15.41-1.99-3.47-1.1-9.02-.44-13.48.75-5.03 3.76-9.87 3.85-14.82.13-7.07-2.27-13.91-7.79-18.96-12.68-11.59-25.18-23.39-38.3-34.47-11.79-9.96-24.09-19.35-36.54-28.47-15.55-11.4-31.16-22.8-47.36-33.22-15.42-9.92-31.44-18.96-47.58-27.67-9.84-5.31-20.22-9.78-30.69-13.73-9.63-3.62-19.64-6.29-29.61-8.9-12.04-3.16-24.14-6.15-36.34-8.59-10.52-2.11-21.25-3.14-31.82-5.03C11.75 36.06 4.66 34 1.15 25.7c-2.87-6.81.19-15.66 5.08-20.23C10.97.96 16.63-.61 22.06.21Zm826.52 408.67c12.37.78 23.64-3.7 34.64-9.3 7.57-3.86 15.09-7.87 22.88-11.23 7.16-3.08 14.58-5.61 22.02-7.96 6.68-2.11 13.53-3.71 20.32-5.45 5.17-1.32 10.35-2.6 15.56-3.76 6.98-1.55 13.94-3.27 21-4.33 6.92-1.04 13.21.92 18.37 5.88 4.08 3.92 7.98 8.06 12.33 11.66 1.59 1.31 4.34 2.03 6.4 1.77 2.81-.35 5.57-1.7 8.19-2.97 9.6-4.63 19.15-9.35 28.67-14.15 9.29-4.67 18.58-9.34 27.74-14.26 11.99-6.44 23.82-13.17 35.78-19.67 13.41-7.28 24.22-17.7 34.45-28.72 8.01-8.63 16.22-17.19 21.61-27.91 3.09-6.15 3.57-12.3.76-18.64-1.89-4.27-7.15-6.74-11.34-4.85-2.57 1.16-5.02 2.91-7.06 4.88-3.63 3.48-6.62 7.64-10.38 10.95-9.74 8.59-18.01 10.18-29.42 3.18-6.23-3.83-12.15-8.18-18.43-11.93-13.06-7.79-26.16-15.5-39.44-22.91-7.11-3.96-14.46-7.59-21.97-10.69-7.1-2.93-14.55-5.06-21.89-7.41-5.4-1.73-10.84-3.31-16.29-4.84-5.42-1.52-10.86-3.04-16.35-4.31-6.39-1.48-12.84-2.66-19.25-4.01-3.73-.79-7.44-1.66-11.16-2.5-6.14-1.38-12.27-2.79-18.41-4.15-4.2-.93-8.42-1.78-12.63-2.7-6.16-1.35-12.31-2.74-18.47-4.08-4.09-.89-8.19-1.72-12.28-2.62-6.03-1.33-12.05-2.74-18.08-4.06-4.21-.93-8.43-1.78-12.65-2.67-6.65-1.4-13.3-2.8-19.95-4.21-3.6-.77-7.2-1.56-10.79-2.38-6.14-1.41-12.27-2.88-18.42-4.25-4.33-.97-8.69-1.77-13.02-2.73-5.91-1.3-11.79-2.7-17.7-4.02-4.2-.94-8.4-1.87-12.62-2.71-7.15-1.44-14.32-2.84-21.49-4.19-5.85-1.1-11.57-2.62-16.01-6.82-3.81-3.6-5.29-8.25-4.99-13.47.2-3.53-.83-6.27-4.6-7.37-4.72-1.38-9.36-3.05-14.12-4.23-7.98-1.98-16.02-3.71-24.05-5.48-10.12-2.23-20.25-4.42-30.38-6.57-5.79-1.23-11.62-2.25-17.4-3.54-6.99-1.55-13.95-3.29-20.92-4.92-6.11-1.43-12.23-2.84-18.36-4.22-5.9-1.34-11.8-2.69-17.71-3.94-6.66-1.41-13.35-2.63-20-4.08-8.91-1.94-17.77-4.1-26.68-6.01-6.4-1.38-12.87-2.42-19.27-3.78-7.5-1.59-14.96-3.38-22.46-5.03-3.12-.69-6.3-1.13-9.41-1.85-6.36-1.49-12.67-3.2-19.04-4.61-6.37-1.41-12.83-2.44-19.21-3.86-11.44-2.54-22.82-5.31-34.25-7.86-8.55-1.91-17.16-3.52-25.71-5.45-8.77-1.98-17.47-4.29-26.25-6.26-10.48-2.34-20.96-4.67-31.52-6.63-10.72-1.99-21.48-4-32.31-5.14-14.74-1.56-29.56-2.33-44.34-3.39-16.16-1.16-32.32-2.3-48.49-3.38-9.7-.65-19.4-1.4-29.1-1.66-13.37-.36-26.74-.37-40.11-.38-6.49 0-13.08-.29-19.47.63-12.45 1.79-24.94 2.39-37.01-.94-11.42-3.15-22.4-7.89-33.53-12.06-7.36-2.75-14.76-5.1-22.77-4.68-3.53.18-6.5 2.3-6.81 5.08-.27 2.39 2.15 4.66 5.87 5.13 5.65.71 11.33 1.14 16.98 1.85 4.42.56 8.85 1.17 13.2 2.11 8.8 1.91 17.56 3.98 26.31 6.13 9.32 2.29 18.81 4.16 27.86 7.26 12.82 4.4 25.52 9.32 37.89 14.85 12 5.37 23.94 11.11 35.16 17.91 17.76 10.76 35.35 21.93 52.21 34.04 21.56 15.5 42.55 31.82 63.33 48.36 11.24 8.94 21.61 19 32.27 28.67 12.49 11.34 19.6 32.48 9.85 49.26-1.23 2.12-1.39 5.09 1.03 7.23 11.57 10.22 22.93 20.67 34.72 30.62 10.59 8.94 21.58 17.42 32.51 25.94 7.61 5.94 15.08 12.14 23.21 17.3 14.93 9.47 29.98 18.87 45.58 27.17 17.61 9.37 35.77 17.75 53.92 26.06 12.84 5.88 25.97 11.17 39.15 16.27 12.76 4.94 25.75 9.32 38.64 13.92 11.16 3.98 22.38 7.81 33.49 11.94 9.64 3.59 19.46 5.45 29.78 5.01 13.46-.57 22.99-7.06 28.78-18.92 2.67-5.47 4.07-11.56 6.7-17.05 4.45-9.28 11.68-14.73 22.41-15.32 9.14-.5 17.3 2.33 25.16 6.32 8.14 4.13 16.2 8.46 24.08 13.07 14.52 8.5 29.64 15.49 45.88 20.12 9.45 2.7 18.87 5.15 29.1 4.88Z" style="fill:#fff;stroke-width:0"/>
</svg>
